# xmcd
#
# Track frame offsets: 
#        150
#        21830
#        40660
#        61327
#        71450
#        95487
#        115762
#        135445
#        156490
#        178682
#        199795
#        217930
#
# Disc length: 3094 seconds
#
# Revision: 1
# Processed by: cddbd v1.5.2PL0 Copyright (c) Steve Scherf et al.
# Submitted via: ExactAudioCopyFreeDBPlugin 1.0
#
DISCID=a10c140c
DTITLE=Shai - The Best Of Shai - 20th Century Masters - The Millennium
DTITLE=Collection
DYEAR=2001
DGENRE=R&B
TTITLE0=If I Ever Fall In Love (Remix)
TTITLE1=Comforter
TTITLE2=Baby I'm Yours
TTITLE3=Sexual Interlude
TTITLE4=Sexual (Tonight is The Night)
TTITLE5=Changes (Remix)
TTITLE6=The Place Where You Belong
TTITLE7=Come With Me
TTITLE8=I Don't Wanna Be Alone
TTITLE9=Mr. Turn U Out
TTITLE10=Did You Know
TTITLE11=If I Ever Fall In Love (Original A Cappella Version)
EXTD=
EXTT0=
EXTT1=
EXTT2=
EXTT3=
EXTT4=
EXTT5=
EXTT6=
EXTT7=
EXTT8=
EXTT9=
EXTT10=
EXTT11=
PLAYORDER=
